<svg xmlns="http://www.w3.org/2000/svg">
  <symbol id="icon-loading" viewBox="0 0 1024 1024">
    <path d="M923.424 447.744"></path>
    <path
      d="M512.064 963.296c-96.16 0-189.344-30.816-267.68-89.472-95.744-71.712-157.856-176.48-174.848-294.912-16.992-118.464 13.152-236.448 84.864-332.224 148.096-197.76 429.44-238.08 627.136-90.08 82.88 62.08 142.016 151.584 166.56 252 4.192 17.184-6.336 34.496-23.488 38.688-17.152 4.064-34.496-6.304-38.688-23.488-20.992-86.048-71.68-162.752-142.752-215.968C573.792 80.96 332.608 115.552 205.632 285.056c-61.472 82.08-87.296 183.2-72.704 284.736 14.56 101.536 67.808 191.296 149.888 252.736 169.536 127.04 410.688 92.384 537.6-77.12 33.216-44.384 56-94.112 67.648-147.84 3.776-17.28 20.896-28.256 38.048-24.512 17.28 3.744 28.256 20.8 24.512 38.048-13.664 62.784-40.224 120.832-78.976 172.672-71.712 95.744-176.48 157.888-294.976 174.848C555.072 961.76 533.504 963.296 512.064 963.296z">
    </path>
  </symbol>
  <symbol id="icon-close-circle" viewBox="0 0 1024 1024">
    <path
      d="M685.4 354.8c0-4.4-3.6-8-8-8l-66 0.3L512 465.6l-99.3-118.4-66.1-0.3c-4.4 0-8 3.5-8 8 0 1.9 0.7 3.7 1.9 5.2l130.1 155L340.5 670c-1.2 1.5-1.9 3.3-1.9 5.2 0 4.4 3.6 8 8 8l66.1-0.3L512 564.4l99.3 118.4 66 0.3c4.4 0 8-3.5 8-8 0-1.9-0.7-3.7-1.9-5.2L553.5 515l130.1-155c1.2-1.4 1.8-3.3 1.8-5.2z">
    </path>
    <path
      d="M512 65C264.6 65 64 265.6 64 513s200.6 448 448 448 448-200.6 448-448S759.4 65 512 65z m0 820c-205.4 0-372-166.6-372-372s166.6-372 372-372 372 166.6 372 372-166.6 372-372 372z">
    </path>
  </symbol>
  <symbol id="icon-info-circle" viewBox="0 0 1024 1024">
    <path
      d="M512 64C264.6 64 64 264.6 64 512s200.6 448 448 448 448-200.6 448-448S759.4 64 512 64z m0 820c-205.4 0-372-166.6-372-372s166.6-372 372-372 372 166.6 372 372-166.6 372-372 372z">
    </path>
    <path d="M512 336m-48 0a48 48 0 1 0 96 0 48 48 0 1 0-96 0Z"></path>
    <path d="M536 448h-48c-4.4 0-8 3.6-8 8v272c0 4.4 3.6 8 8 8h48c4.4 0 8-3.6 8-8V456c0-4.4-3.6-8-8-8z"></path>
  </symbol>
  <symbol id="icon-plus-circle" viewBox="0 0 1024 1024">
    <path
      d="M696 480H544V328c0-4.4-3.6-8-8-8h-48c-4.4 0-8 3.6-8 8v152H328c-4.4 0-8 3.6-8 8v48c0 4.4 3.6 8 8 8h152v152c0 4.4 3.6 8 8 8h48c4.4 0 8-3.6 8-8V544h152c4.4 0 8-3.6 8-8v-48c0-4.4-3.6-8-8-8z">
    </path>
    <path
      d="M512 64C264.6 64 64 264.6 64 512s200.6 448 448 448 448-200.6 448-448S759.4 64 512 64z m0 820c-205.4 0-372-166.6-372-372s166.6-372 372-372 372 166.6 372 372-166.6 372-372 372z">
    </path>
  </symbol>
  <symbol id="icon-warning-circle" viewBox="0 0 1024 1024">
    <path
      d="M512 64C264.6 64 64 264.6 64 512s200.6 448 448 448 448-200.6 448-448S759.4 64 512 64z m0 820c-205.4 0-372-166.6-372-372s166.6-372 372-372 372 166.6 372 372-166.6 372-372 372z">
    </path>
    <path d="M512 688m-48 0a48 48 0 1 0 96 0 48 48 0 1 0-96 0Z"></path>
    <path d="M488 576h48c4.4 0 8-3.6 8-8V296c0-4.4-3.6-8-8-8h-48c-4.4 0-8 3.6-8 8v272c0 4.4 3.6 8 8 8z"></path>
  </symbol>
  <symbol id="icon-sync" viewBox="0 0 1024 1024">
    <path
      d="M168 504.2c1-43.7 10-86.1 26.9-126 17.3-41 42.1-77.7 73.7-109.4S337 212.3 378 195c42.4-17.9 87.4-27 133.9-27s91.5 9.1 133.8 27c40.9 17.3 77.7 42.1 109.3 73.8 9.9 9.9 19.2 20.4 27.8 31.4l-60.2 47c-5.3 4.1-3.5 12.5 3 14.1l175.7 43c5 1.2 9.9-2.6 9.9-7.7l0.8-180.9c0-6.7-7.7-10.5-12.9-6.3l-56.4 44.1C765.8 155.1 646.2 92 511.8 92 282.7 92 96.3 275.6 92 503.8c-0.1 4.5 3.5 8.2 8 8.2h60c4.4 0 7.9-3.5 8-7.8zM924 512h-60c-4.4 0-7.9 3.5-8 7.8-1 43.7-10 86.1-26.9 126-17.3 41-42.1 77.8-73.7 109.4S687 811.7 646 829c-42.4 17.9-87.4 27-133.9 27s-91.5-9.1-133.9-27c-40.9-17.3-77.7-42.1-109.3-73.8-9.9-9.9-19.2-20.4-27.8-31.4l60.2-47c5.3-4.1 3.5-12.5-3-14.1l-175.7-43c-5-1.2-9.9 2.6-9.9 7.7l-0.7 181c0 6.7 7.7 10.5 12.9 6.3l56.4-44.1C258.2 868.9 377.8 932 512.2 932c229.2 0 415.5-183.7 419.8-411.8 0.1-4.5-3.5-8.2-8-8.2z">
    </path>
  </symbol>
  <symbol id="icon-setting" viewBox="0 0 1024 1024">
    <path
      d="M924.8 625.7l-65.5-56c3.1-19 4.7-38.4 4.7-57.8s-1.6-38.8-4.7-57.8l65.5-56c10.1-8.6 13.8-22.6 9.3-35.2l-0.9-2.6c-18.1-50.5-44.9-96.9-79.7-137.9l-1.8-2.1c-8.6-10.1-22.5-13.9-35.1-9.5l-81.3 28.9c-30-24.6-63.5-44-99.7-57.6l-15.7-85c-2.4-13.1-12.7-23.3-25.8-25.7l-2.7-0.5c-52.1-9.4-106.9-9.4-159 0l-2.7 0.5c-13.1 2.4-23.4 12.6-25.8 25.7l-15.8 85.4c-35.9 13.6-69.2 32.9-99 57.4l-81.9-29.1c-12.5-4.4-26.5-0.7-35.1 9.5l-1.8 2.1c-34.8 41.1-61.6 87.5-79.7 137.9l-0.9 2.6c-4.5 12.5-0.8 26.5 9.3 35.2l66.3 56.6c-3.1 18.8-4.6 38-4.6 57.1 0 19.2 1.5 38.4 4.6 57.1L99 625.5c-10.1 8.6-13.8 22.6-9.3 35.2l0.9 2.6c18.1 50.4 44.9 96.9 79.7 137.9l1.8 2.1c8.6 10.1 22.5 13.9 35.1 9.5l81.9-29.1c29.8 24.5 63.1 43.9 99 57.4l15.8 85.4c2.4 13.1 12.7 23.3 25.8 25.7l2.7 0.5c26.1 4.7 52.8 7.1 79.5 7.1 26.7 0 53.5-2.4 79.5-7.1l2.7-0.5c13.1-2.4 23.4-12.6 25.8-25.7l15.7-85c36.2-13.6 69.7-32.9 99.7-57.6l81.3 28.9c12.5 4.4 26.5 0.7 35.1-9.5l1.8-2.1c34.8-41.1 61.6-87.5 79.7-137.9l0.9-2.6c4.5-12.3 0.8-26.3-9.3-35zM788.3 465.9c2.5 15.1 3.8 30.6 3.8 46.1s-1.3 31-3.8 46.1l-6.6 40.1 74.7 63.9c-11.3 26.1-25.6 50.7-42.6 73.6L721 702.8l-31.4 25.8c-23.9 19.6-50.5 35-79.3 45.8l-38.1 14.3-17.9 97c-28.1 3.2-56.8 3.2-85 0l-17.9-97.2-37.8-14.5c-28.5-10.8-55-26.2-78.7-45.7l-31.4-25.9-93.4 33.2c-17-22.9-31.2-47.6-42.6-73.6l75.5-64.5-6.5-40c-2.4-14.9-3.7-30.3-3.7-45.5 0-15.3 1.2-30.6 3.7-45.5l6.5-40-75.5-64.5c11.3-26.1 25.6-50.7 42.6-73.6l93.4 33.2 31.4-25.9c23.7-19.5 50.2-34.9 78.7-45.7l37.9-14.3 17.9-97.2c28.1-3.2 56.8-3.2 85 0l17.9 97 38.1 14.3c28.7 10.8 55.4 26.2 79.3 45.8l31.4 25.8 92.8-32.9c17 22.9 31.2 47.6 42.6 73.6L781.8 426l6.5 39.9z">
    </path>
    <path
      d="M512 326c-97.2 0-176 78.8-176 176s78.8 176 176 176 176-78.8 176-176-78.8-176-176-176z m79.2 255.2C570 602.3 541.9 614 512 614c-29.9 0-58-11.7-79.2-32.8C411.7 560 400 531.9 400 502c0-29.9 11.7-58 32.8-79.2C454 401.6 482.1 390 512 390c29.9 0 58 11.6 79.2 32.8C612.3 444 624 472.1 624 502c0 29.9-11.7 58-32.8 79.2z">
    </path>
  </symbol>
  <symbol id="icon-eye" viewBox="0 0 1024 1024">
    <path
      d="M942.2 486.2C847.4 286.5 704.1 186 512 186c-192.2 0-335.4 100.5-430.2 300.3-7.7 16.2-7.7 35.2 0 51.5C176.6 737.5 319.9 838 512 838c192.2 0 335.4-100.5 430.2-300.3 7.7-16.2 7.7-35 0-51.5zM512 766c-161.3 0-279.4-81.8-362.7-254C232.6 339.8 350.7 258 512 258c161.3 0 279.4 81.8 362.7 254C791.5 684.2 673.4 766 512 766z">
    </path>
    <path
      d="M508 336c-97.2 0-176 78.8-176 176s78.8 176 176 176 176-78.8 176-176-78.8-176-176-176z m0 288c-61.9 0-112-50.1-112-112s50.1-112 112-112 112 50.1 112 112-50.1 112-112 112z">
    </path>
  </symbol>
  <symbol id="icon-delete" viewBox="0 0 1024 1024">
    <path
      d="M360 184h-8c4.4 0 8-3.6 8-8v8h304v-8c0 4.4 3.6 8 8 8h-8v72h72v-80c0-35.3-28.7-64-64-64H352c-35.3 0-64 28.7-64 64v80h72v-72z">
    </path>
    <path
      d="M864 256H160c-17.7 0-32 14.3-32 32v32c0 4.4 3.6 8 8 8h60.4l24.7 523c1.6 34.1 29.8 61 63.9 61h454c34.2 0 62.3-26.8 63.9-61l24.7-523H888c4.4 0 8-3.6 8-8v-32c0-17.7-14.3-32-32-32zM731.3 840H292.7l-24.2-512h487l-24.2 512z">
    </path>
  </symbol>
  <symbol id="icon-folder" viewBox="0 0 1024 1024">
    <path
      d="M880 298.4H521L403.7 186.2c-1.5-1.4-3.5-2.2-5.5-2.2H144c-17.7 0-32 14.3-32 32v592c0 17.7 14.3 32 32 32h736c17.7 0 32-14.3 32-32V330.4c0-17.7-14.3-32-32-32zM840 768H184V256h188.5l119.6 114.4H840V768z">
    </path>
  </symbol>
  <symbol id="icon-folder-open" viewBox="0 0 1024 1024">
    <path
      d="M928 444H820V330.4c0-17.7-14.3-32-32-32H473L355.7 186.2c-1.5-1.4-3.5-2.2-5.5-2.2H96c-17.7 0-32 14.3-32 32v592c0 17.7 14.3 32 32 32h698c13 0 24.8-7.9 29.7-20l134-332c1.5-3.8 2.3-7.9 2.3-12 0-17.7-14.3-32-32-32zM136 256h188.5l119.6 114.4H748V444H238c-13 0-24.8 7.9-29.7 20L136 643.2V256z m635.3 512H159l103.3-256h612.4L771.3 768z">
    </path>
  </symbol>
  <symbol id="icon-folder-add" viewBox="0 0 1024 1024">
    <path
      d="M484 443.1V528h-84.5c-4.1 0-7.5 3.1-7.5 7v42c0 3.8 3.4 7 7.5 7H484v84.9c0 3.9 3.2 7.1 7 7.1h42c3.9 0 7-3.2 7-7.1V584h84.5c4.1 0 7.5-3.2 7.5-7v-42c0-3.9-3.4-7-7.5-7H540v-84.9c0-3.9-3.1-7.1-7-7.1h-42c-3.8 0-7 3.2-7 7.1z">
    </path>
    <path
      d="M880 298.4H521L403.7 186.2c-1.5-1.4-3.5-2.2-5.5-2.2H144c-17.7 0-32 14.3-32 32v592c0 17.7 14.3 32 32 32h736c17.7 0 32-14.3 32-32V330.4c0-17.7-14.3-32-32-32zM840 768H184V256h188.5l119.6 114.4H840V768z">
    </path>
  </symbol>
  <symbol id="icon-edit" viewBox="0 0 1024 1024">
    <path
      d="M257.7 752c2 0 4-0.2 6-0.5L431.9 722c2-0.4 3.9-1.3 5.3-2.8l423.9-423.9c3.9-3.9 3.9-10.2 0-14.1L694.9 114.9c-1.9-1.9-4.4-2.9-7.1-2.9s-5.2 1-7.1 2.9L256.8 538.8c-1.5 1.5-2.4 3.3-2.8 5.3l-29.5 168.2c-1.9 11.1 1.5 21.9 9.4 29.8 6.6 6.4 14.9 9.9 23.8 9.9z m67.4-174.4L687.8 215l73.3 73.3-362.7 362.6-88.9 15.7 15.6-89zM880 836H144c-17.7 0-32 14.3-32 32v36c0 4.4 3.6 8 8 8h784c4.4 0 8-3.6 8-8v-36c0-17.7-14.3-32-32-32z">
    </path>
  </symbol>
  <symbol id="icon-right" viewBox="0 0 1024 1024">
    <path
      d="M765.7 486.8L314.9 134.7c-5.3-4.1-12.9-0.4-12.9 6.3v77.3c0 4.9 2.3 9.6 6.1 12.6l360 281.1-360 281.1c-3.9 3-6.1 7.7-6.1 12.6V883c0 6.7 7.7 10.4 12.9 6.3l450.8-352.1c16.4-12.8 16.4-37.6 0-50.4z">
    </path>
  </symbol>
  <symbol id="icon-left" viewBox="0 0 1024 1024">
    <path
      d="M724 218.3V141c0-6.7-7.7-10.4-12.9-6.3L260.3 486.8c-16.4 12.8-16.4 37.5 0 50.3l450.8 352.1c5.3 4.1 12.9 0.4 12.9-6.3v-77.3c0-4.9-2.3-9.6-6.1-12.6l-360-281 360-281.1c3.8-3 6.1-7.7 6.1-12.6z">
    </path>
  </symbol>
  <symbol id="icon-up" viewBox="0 0 1024 1024">
    <path
      d="M890.5 755.3L537.9 269.2c-12.8-17.6-39-17.6-51.7 0L133.5 755.3c-3.8 5.3-0.1 12.7 6.5 12.7h75c5.1 0 9.9-2.5 12.9-6.6L512 369.8l284.1 391.6c3 4.1 7.8 6.6 12.9 6.6h75c6.5 0 10.3-7.4 6.5-12.7z">
    </path>
  </symbol>
  <symbol id="icon-down" viewBox="0 0 1024 1024">
    <path
      d="M884 256h-75c-5.1 0-9.9 2.5-12.9 6.6L512 654.2 227.9 262.6c-3-4.1-7.8-6.6-12.9-6.6h-75c-6.5 0-10.3 7.4-6.5 12.7l352.6 486.1c12.8 17.6 39 17.6 51.7 0l352.6-486.1c3.9-5.3 0.1-12.7-6.4-12.7z">
    </path>
  </symbol>
  <symbol id="icon-fullscreen" viewBox="0 0 1024 1024">
    <path
      d="M290 236.4l43.9-43.9c4.7-4.7 1.9-12.8-4.7-13.6L169 160c-5.1-0.6-9.5 3.7-8.9 8.9L179 329.1c0.8 6.6 8.9 9.4 13.6 4.7l43.7-43.7L370 423.7c3.1 3.1 8.2 3.1 11.3 0l42.4-42.3c3.1-3.1 3.1-8.2 0-11.3L290 236.4zM642.7 423.7c3.1 3.1 8.2 3.1 11.3 0l133.7-133.6 43.7 43.7c4.7 4.7 12.8 1.9 13.6-4.7L863.9 169c0.6-5.1-3.7-9.5-8.9-8.9L694.8 179c-6.6 0.8-9.4 8.9-4.7 13.6l43.9 43.9L600.3 370c-3.1 3.1-3.1 8.2 0 11.3l42.4 42.4zM845 694.9c-0.8-6.6-8.9-9.4-13.6-4.7l-43.7 43.7L654 600.3c-3.1-3.1-8.2-3.1-11.3 0l-42.4 42.3c-3.1 3.1-3.1 8.2 0 11.3L734 787.6l-43.9 43.9c-4.7 4.7-1.9 12.8 4.7 13.6L855 864c5.1 0.6 9.5-3.7 8.9-8.9L845 694.9zM381.3 600.3c-3.1-3.1-8.2-3.1-11.3 0L236.3 733.9l-43.7-43.7c-4.7-4.7-12.8-1.9-13.6 4.7L160.1 855c-0.6 5.1 3.7 9.5 8.9 8.9L329.2 845c6.6-0.8 9.4-8.9 4.7-13.6L290 787.6 423.7 654c3.1-3.1 3.1-8.2 0-11.3l-42.4-42.4z">
    </path>
  </symbol>
  <symbol id="icon-fullscreen-exit" viewBox="0 0 1024 1024">
    <path
      d="M391 240.9c-0.8-6.6-8.9-9.4-13.6-4.7l-43.7 43.7L200 146.3c-3.1-3.1-8.2-3.1-11.3 0l-42.4 42.3c-3.1 3.1-3.1 8.2 0 11.3L280 333.6l-43.9 43.9c-4.7 4.7-1.9 12.8 4.7 13.6L401 410c5.1 0.6 9.5-3.7 8.9-8.9L391 240.9zM401.1 614.1L240.8 633c-6.6 0.8-9.4 8.9-4.7 13.6l43.9 43.9L146.3 824c-3.1 3.1-3.1 8.2 0 11.3l42.4 42.3c3.1 3.1 8.2 3.1 11.3 0L333.7 744l43.7 43.7c4.7 4.7 12.8 1.9 13.6-4.7l18.9-160.1c0.6-5.1-3.7-9.4-8.8-8.8zM622.9 409.9L783.2 391c6.6-0.8 9.4-8.9 4.7-13.6L744 333.6 877.7 200c3.1-3.1 3.1-8.2 0-11.3l-42.4-42.3c-3.1-3.1-8.2-3.1-11.3 0L690.3 279.9l-43.7-43.7c-4.7-4.7-12.8-1.9-13.6 4.7L614.1 401c-0.6 5.2 3.7 9.5 8.8 8.9zM744 690.4l43.9-43.9c4.7-4.7 1.9-12.8-4.7-13.6L623 614c-5.1-0.6-9.5 3.7-8.9 8.9L633 783.1c0.8 6.6 8.9 9.4 13.6 4.7l43.7-43.7L824 877.7c3.1 3.1 8.2 3.1 11.3 0l42.4-42.3c3.1-3.1 3.1-8.2 0-11.3L744 690.4z">
    </path>
  </symbol>
  <symbol id="icon-drag" viewBox="0 0 1024 1024">
    <path
      d="M909.3 506.3L781.7 405.6c-4.7-3.7-11.7-0.4-11.7 5.7V476H548V254h64.8c6 0 9.4-7 5.7-11.7L517.7 114.7c-2.9-3.7-8.5-3.7-11.3 0L405.6 242.3c-3.7 4.7-0.4 11.7 5.7 11.7H476v222H254v-64.8c0-6-7-9.4-11.7-5.7L114.7 506.3c-3.7 2.9-3.7 8.5 0 11.3l127.5 100.8c4.7 3.7 11.7 0.4 11.7-5.7V548h222v222h-64.8c-6 0-9.4 7-5.7 11.7l100.8 127.5c2.9 3.7 8.5 3.7 11.3 0l100.8-127.5c3.7-4.7 0.4-11.7-5.7-11.7H548V548h222v64.8c0 6 7 9.4 11.7 5.7l127.5-100.8c3.7-2.9 3.7-8.5 0.1-11.4z">
    </path>
  </symbol>
  <symbol id="icon-close-circle-fill" viewBox="0 0 1024 1024">
    <path
      d="M512 64C264.6 64 64 264.6 64 512s200.6 448 448 448 448-200.6 448-448S759.4 64 512 64z m165.4 618.2l-66-0.3L512 563.4l-99.3 118.4-66.1 0.3c-4.4 0-8-3.5-8-8 0-1.9 0.7-3.7 1.9-5.2l130.1-155L340.5 359c-1.2-1.5-1.9-3.3-1.9-5.2 0-4.4 3.6-8 8-8l66.1 0.3L512 464.6l99.3-118.4 66-0.3c4.4 0 8 3.5 8 8 0 1.9-0.7 3.7-1.9 5.2L553.5 514l130 155c1.2 1.5 1.9 3.3 1.9 5.2 0 4.4-3.6 8-8 8z">
    </path>
  </symbol>
  <symbol id="icon-info-circle-fill" viewBox="0 0 1024 1024">
    <path
      d="M512 64C264.6 64 64 264.6 64 512s200.6 448 448 448 448-200.6 448-448S759.4 64 512 64z m32 664c0 4.4-3.6 8-8 8h-48c-4.4 0-8-3.6-8-8V456c0-4.4 3.6-8 8-8h48c4.4 0 8 3.6 8 8v272z m-32-344c-26.5 0-48-21.5-48-48s21.5-48 48-48 48 21.5 48 48-21.5 48-48 48z">
    </path>
  </symbol>
  <symbol id="icon-plus-circle-fill" viewBox="0 0 1024 1024">
    <path
      d="M512 64C264.6 64 64 264.6 64 512s200.6 448 448 448 448-200.6 448-448S759.4 64 512 64z m192 472c0 4.4-3.6 8-8 8H544v152c0 4.4-3.6 8-8 8h-48c-4.4 0-8-3.6-8-8V544H328c-4.4 0-8-3.6-8-8v-48c0-4.4 3.6-8 8-8h152V328c0-4.4 3.6-8 8-8h48c4.4 0 8 3.6 8 8v152h152c4.4 0 8 3.6 8 8v48z">
    </path>
  </symbol>
  <symbol id="icon-question-circle-fill" viewBox="0 0 1024 1024">
    <path
      d="M512 64C264.6 64 64 264.6 64 512s200.6 448 448 448 448-200.6 448-448S759.4 64 512 64z m0 708c-22.1 0-40-17.9-40-40s17.9-40 40-40 40 17.9 40 40-17.9 40-40 40z m62.9-219.5c-18.5 7.1-30.9 25.1-30.9 44.8V620c0 4.4-3.6 8-8 8h-48c-4.4 0-8-3.6-8-8v-21.5c0-23.1 6.7-45.9 19.9-64.9 12.9-18.6 30.9-32.8 52.1-40.9 34-13.1 56-41.6 56-72.7 0-44.1-43.1-80-96-80s-96 35.9-96 80v7.6c0 4.4-3.6 8-8 8h-48c-4.4 0-8-3.6-8-8V420c0-39.3 17.2-76 48.4-103.3C430.4 290.4 470 276 512 276s81.6 14.5 111.6 40.7C654.8 344 672 380.7 672 420c0 57.8-38.1 109.8-97.1 132.5z">
    </path>
  </symbol>
  <symbol id="icon-appstore-fill" viewBox="0 0 1024 1024">
    <path
      d="M864 144H560c-8.8 0-16 7.2-16 16v304c0 8.8 7.2 16 16 16h304c8.8 0 16-7.2 16-16V160c0-8.8-7.2-16-16-16zM864 544H560c-8.8 0-16 7.2-16 16v304c0 8.8 7.2 16 16 16h304c8.8 0 16-7.2 16-16V560c0-8.8-7.2-16-16-16zM464 144H160c-8.8 0-16 7.2-16 16v304c0 8.8 7.2 16 16 16h304c8.8 0 16-7.2 16-16V160c0-8.8-7.2-16-16-16zM464 544H160c-8.8 0-16 7.2-16 16v304c0 8.8 7.2 16 16 16h304c8.8 0 16-7.2 16-16V560c0-8.8-7.2-16-16-16z">
    </path>
  </symbol>
  <symbol id="icon-delete-fill" viewBox="0 0 1024 1024">
    <path
      d="M864 256H736v-80c0-35.3-28.7-64-64-64H352c-35.3 0-64 28.7-64 64v80H160c-17.7 0-32 14.3-32 32v32c0 4.4 3.6 8 8 8h60.4l24.7 523c1.6 34.1 29.8 61 63.9 61h454c34.2 0 62.3-26.8 63.9-61l24.7-523H888c4.4 0 8-3.6 8-8v-32c0-17.7-14.3-32-32-32z m-200 0H360v-72h304v72z">
    </path>
  </symbol>
  <symbol id="icon-setting-fill" viewBox="0 0 1024 1024">
    <path
      d="M512.5 390.6c-29.9 0-57.9 11.6-79.1 32.8-21.1 21.2-32.8 49.2-32.8 79.1 0 29.9 11.7 57.9 32.8 79.1 21.2 21.1 49.2 32.8 79.1 32.8 29.9 0 57.9-11.7 79.1-32.8 21.1-21.2 32.8-49.2 32.8-79.1 0-29.9-11.7-57.9-32.8-79.1-21.2-21.2-49.2-32.8-79.1-32.8z">
    </path>
    <path
      d="M924.8 626.1l-65.4-55.9c3.1-19 4.7-38.4 4.7-57.7s-1.6-38.8-4.7-57.7l65.4-55.9c10.1-8.6 13.8-22.6 9.3-35.2l-0.9-2.6c-18.1-50.4-44.8-96.8-79.6-137.7l-1.8-2.1c-8.6-10.1-22.5-13.9-35.1-9.5l-81.2 28.9c-30-24.6-63.4-44-99.6-57.5l-15.7-84.9c-2.4-13.1-12.7-23.3-25.8-25.7l-2.7-0.5c-52-9.4-106.8-9.4-158.8 0l-2.7 0.5c-13.1 2.4-23.4 12.6-25.8 25.7l-15.8 85.3c-35.9 13.6-69.1 32.9-98.9 57.3l-81.8-29.1c-12.5-4.4-26.5-0.7-35.1 9.5l-1.8 2.1c-34.8 41.1-61.5 87.4-79.6 137.7l-0.9 2.6c-4.5 12.5-0.8 26.5 9.3 35.2l66.2 56.5c-3.1 18.8-4.6 38-4.6 57 0 19.2 1.5 38.4 4.6 57l-66 56.5c-10.1 8.6-13.8 22.6-9.3 35.2l0.9 2.6c18.1 50.3 44.8 96.8 79.6 137.7l1.8 2.1c8.6 10.1 22.5 13.9 35.1 9.5l81.8-29.1c29.8 24.5 63 43.9 98.9 57.3l15.8 85.3c2.4 13.1 12.7 23.3 25.8 25.7l2.7 0.5c26.1 4.7 52.7 7.1 79.4 7.1 26.7 0 53.4-2.4 79.4-7.1l2.7-0.5c13.1-2.4 23.4-12.6 25.8-25.7l15.7-84.9c36.2-13.6 69.6-32.9 99.6-57.5l81.2 28.9c12.5 4.4 26.5 0.7 35.1-9.5l1.8-2.1c34.8-41.1 61.5-87.4 79.6-137.7l0.9-2.6c4.3-12.4 0.6-26.3-9.5-35z m-412.3 52.2c-97.1 0-175.8-78.7-175.8-175.8s78.7-175.8 175.8-175.8 175.8 78.7 175.8 175.8-78.7 175.8-175.8 175.8z">
    </path>
  </symbol>
  <symbol id="icon-search" viewBox="0 0 1024 1024">
    <path
      d="M909.6 854.5L649.9 594.8C690.2 542.7 712 479 712 412c0-80.2-31.3-155.4-87.9-212.1-56.6-56.7-132-87.9-212.1-87.9s-155.5 31.3-212.1 87.9C143.2 256.5 112 331.8 112 412c0 80.1 31.3 155.5 87.9 212.1C256.5 680.8 331.8 712 412 712c67 0 130.6-21.8 182.7-62l259.7 259.6c3.2 3.2 8.4 3.2 11.6 0l43.6-43.5c3.2-3.2 3.2-8.4 0-11.6zM570.4 570.4C528 612.7 471.8 636 412 636s-116-23.3-158.4-65.6C211.3 528 188 471.8 188 412s23.3-116.1 65.6-158.4C296 211.3 352.2 188 412 188s116.1 23.2 158.4 65.6S636 352.2 636 412s-23.3 116.1-65.6 158.4z">
    </path>
  </symbol>
  <symbol id="icon-plus" viewBox="0 0 1024 1024">
    <path d="M474 152m8 0l60 0q8 0 8 8l0 704q0 8-8 8l-60 0q-8 0-8-8l0-704q0-8 8-8Z"></path>
    <path d="M168 474m8 0l672 0q8 0 8 8l0 60q0 8-8 8l-672 0q-8 0-8-8l0-60q0-8 8-8Z"></path>
  </symbol>
  <symbol id="icon-expend" viewBox="0 0 1024 1024">
    <path
      d="M342 88H120c-17.7 0-32 14.3-32 32v224c0 8.8 7.2 16 16 16h48c8.8 0 16-7.2 16-16V168h174c8.8 0 16-7.2 16-16v-48c0-8.8-7.2-16-16-16zM920 664h-48c-8.8 0-16 7.2-16 16v176H682c-8.8 0-16 7.2-16 16v48c0 8.8 7.2 16 16 16h222c17.7 0 32-14.3 32-32V680c0-8.8-7.2-16-16-16zM342 856H168V680c0-8.8-7.2-16-16-16h-48c-8.8 0-16 7.2-16 16v224c0 17.7 14.3 32 32 32h222c8.8 0 16-7.2 16-16v-48c0-8.8-7.2-16-16-16zM904 88H682c-8.8 0-16 7.2-16 16v48c0 8.8 7.2 16 16 16h174v176c0 8.8 7.2 16 16 16h48c8.8 0 16-7.2 16-16V120c0-17.7-14.3-32-32-32z">
    </path>
  </symbol>
</svg>